<mxfile host="app.diagrams.net" modified="2020-03-20T06:58:21.674Z" agent="Mozilla/5.0 (Macintosh; Intel Mac OS X 10_15_3) AppleWebKit/537.36 (KHTML, like Gecko) Chrome/80.0.3987.132 Safari/537.36" etag="NGZi-3fKJJPes5Bx_9HQ" version="12.8.8" type="github">
  <diagram id="_2cxGriYFBya_I2Rx0r6" name="Page-1">
    <mxGraphModel dx="456" dy="646" grid="1" gridSize="10" guides="1" tooltips="1" connect="1" arrows="1" fold="1" page="1" pageScale="1" pageWidth="827" pageHeight="1169" math="0" shadow="0">
      <root>
        <mxCell id="0" />
        <mxCell id="1" parent="0" />
        <mxCell id="MW3Q_T4GFwRoETefi-5V-1" value="トップページ(/)" style="rounded=0;whiteSpace=wrap;html=1;" vertex="1" parent="1">
          <mxGeometry x="60" y="310" width="120" height="30" as="geometry" />
        </mxCell>
        <mxCell id="MW3Q_T4GFwRoETefi-5V-3" value="・会員登録ボタン" style="text;html=1;align=center;verticalAlign=middle;resizable=0;points=[];autosize=1;" vertex="1" parent="1">
          <mxGeometry x="65" y="340" width="110" height="20" as="geometry" />
        </mxCell>
        <mxCell id="MW3Q_T4GFwRoETefi-5V-4" value="・ログインボタン" style="text;html=1;align=center;verticalAlign=middle;resizable=0;points=[];autosize=1;" vertex="1" parent="1">
          <mxGeometry x="65" y="360" width="110" height="20" as="geometry" />
        </mxCell>
        <mxCell id="MW3Q_T4GFwRoETefi-5V-5" value="・お問い合わせボタン" style="text;html=1;align=center;verticalAlign=middle;resizable=0;points=[];autosize=1;" vertex="1" parent="1">
          <mxGeometry x="65" y="380" width="140" height="20" as="geometry" />
        </mxCell>
        <mxCell id="MW3Q_T4GFwRoETefi-5V-8" value="" style="rounded=0;whiteSpace=wrap;html=1;" vertex="1" parent="1">
          <mxGeometry x="100" y="470" width="310" height="190" as="geometry" />
        </mxCell>
        <mxCell id="MW3Q_T4GFwRoETefi-5V-9" value="全ページから遷移可能" style="text;html=1;strokeColor=none;fillColor=none;align=center;verticalAlign=middle;whiteSpace=wrap;rounded=0;" vertex="1" parent="1">
          <mxGeometry x="100" y="480" width="160" height="20" as="geometry" />
        </mxCell>
        <mxCell id="MW3Q_T4GFwRoETefi-5V-10" value="マイページ" style="ellipse;shape=cloud;whiteSpace=wrap;html=1;" vertex="1" parent="1">
          <mxGeometry x="110" y="530" width="120" height="50" as="geometry" />
        </mxCell>
        <mxCell id="MW3Q_T4GFwRoETefi-5V-11" value="※雲は実装提案" style="text;html=1;align=center;verticalAlign=middle;resizable=0;points=[];autosize=1;" vertex="1" parent="1">
          <mxGeometry x="16" y="68" width="90" height="20" as="geometry" />
        </mxCell>
        <mxCell id="MW3Q_T4GFwRoETefi-5V-12" value="・名前変更" style="text;html=1;align=center;verticalAlign=middle;resizable=0;points=[];autosize=1;" vertex="1" parent="1">
          <mxGeometry x="130" y="575" width="80" height="20" as="geometry" />
        </mxCell>
        <mxCell id="MW3Q_T4GFwRoETefi-5V-13" value="・アカウント削除" style="text;html=1;align=center;verticalAlign=middle;resizable=0;points=[];autosize=1;" vertex="1" parent="1">
          <mxGeometry x="115" y="595" width="110" height="20" as="geometry" />
        </mxCell>
        <mxCell id="MW3Q_T4GFwRoETefi-5V-15" value="授業リスト(/listpage)" style="rounded=0;whiteSpace=wrap;html=1;" vertex="1" parent="1">
          <mxGeometry x="60" y="220" width="120" height="20" as="geometry" />
        </mxCell>
        <mxCell id="MW3Q_T4GFwRoETefi-5V-16" value="・ログインデフォルトリダイレクトページ(※1)" style="text;html=1;align=center;verticalAlign=middle;resizable=0;points=[];autosize=1;" vertex="1" parent="1">
          <mxGeometry x="50" y="240" width="260" height="20" as="geometry" />
        </mxCell>
        <mxCell id="MW3Q_T4GFwRoETefi-5V-17" value="※1 ヘッダーのログインボタンからログインされたら無条件でここに遷移" style="text;html=1;align=center;verticalAlign=middle;resizable=0;points=[];autosize=1;" vertex="1" parent="1">
          <mxGeometry x="40" y="701" width="400" height="20" as="geometry" />
        </mxCell>
        <mxCell id="MW3Q_T4GFwRoETefi-5V-18" value="" style="endArrow=classic;startArrow=classic;html=1;exitX=1;exitY=0.5;exitDx=0;exitDy=0;" edge="1" parent="1" source="MW3Q_T4GFwRoETefi-5V-15">
          <mxGeometry width="50" height="50" relative="1" as="geometry">
            <mxPoint x="230" y="240" as="sourcePoint" />
            <mxPoint x="330" y="230" as="targetPoint" />
          </mxGeometry>
        </mxCell>
        <mxCell id="MW3Q_T4GFwRoETefi-5V-19" value="授業詳細(/detailpage)" style="rounded=0;whiteSpace=wrap;html=1;" vertex="1" parent="1">
          <mxGeometry x="330" y="215" width="120" height="30" as="geometry" />
        </mxCell>
        <mxCell id="MW3Q_T4GFwRoETefi-5V-20" value="・授業リストの授業押下でここに遷移" style="text;html=1;align=center;verticalAlign=middle;resizable=0;points=[];autosize=1;" vertex="1" parent="1">
          <mxGeometry x="320" y="250" width="220" height="20" as="geometry" />
        </mxCell>
        <mxCell id="MW3Q_T4GFwRoETefi-5V-24" value="&lt;h1&gt;Heading&lt;/h1&gt;&lt;p&gt;&lt;span style=&quot;text-align: center ; white-space: nowrap&quot;&gt;・UX上げたいなら、ここにバックボタンを用意、授業リストでの絞り込み条件をここまで持ってきて、バックボタンでさっきまで見ていた絞り込み条件を&lt;/span&gt;&lt;br&gt;&lt;/p&gt;" style="text;html=1;strokeColor=none;fillColor=none;spacing=5;spacingTop=-20;whiteSpace=wrap;overflow=hidden;rounded=0;" vertex="1" parent="1">
          <mxGeometry x="490" y="260" width="190" height="120" as="geometry" />
        </mxCell>
      </root>
    </mxGraphModel>
  </diagram>
</mxfile>
